<?xml version="1.0" standalone="no"?>
<!DOCTYPE svg PUBLIC "-//W3C//DTD SVG 20010904//EN"
 "http://www.w3.org/TR/2001/REC-SVG-20010904/DTD/svg10.dtd">
<svg version="1.0" xmlns="http://www.w3.org/2000/svg"
 width="300.000000pt" height="105.000000pt" viewBox="0 0 300.000000 105.000000"
 preserveAspectRatio="xMidYMid meet">
<metadata>
Created by potrace 1.10, written by Peter Selinger 2001-2011
</metadata>
<g transform="translate(0.000000,105.000000) scale(0.050000,-0.050000)"
fill="#14a084" stroke="none">
<path d="M483 1757 c-361 -139 -440 -661 -126 -834 107 -59 128 -46 29 19
-393 256 -152 838 347 838 195 0 292 -84 297 -258 l3 -118 -88 -10 c-99 -11
-136 -36 -118 -83 14 -36 202 -45 223 -11 45 73 130 -72 129 -220 0 -199 -107
-354 -256 -374 -204 -27 -223 14 -223 482 0 437 -48 597 -153 510 -52 -44 -31
-837 25 -912 157 -211 654 -128 761 128 71 170 -18 422 -150 425 -20 1 -23 14
-12 46 32 89 21 248 -19 292 -107 119 -458 161 -669 80z m497 -418 c0 -11 -13
-25 -30 -32 -40 -15 -96 8 -80 33 16 26 110 26 110 -1z"/>
<path d="M1529 1651 c-41 -62 -22 -127 40 -143 108 -27 175 86 94 159 -51 46
-97 41 -134 -16z"/>
<path d="M4204 1669 c-102 -72 -10 -206 106 -153 58 27 68 104 19 153 -40 39
-68 39 -125 0z"/>
<path d="M1509 1298 c-52 -84 -30 -397 32 -459 72 -72 299 -34 299 50 0 60 58
78 79 24 40 -105 310 -155 448 -83 32 17 69 30 84 30 14 0 55 24 90 54 60 51
64 51 84 16 54 -95 117 -130 238 -130 l117 0 0 -155 c0 -304 114 -483 223
-352 36 44 38 394 2 430 -38 38 -30 73 18 88 24 8 70 42 103 76 44 47 61 56
69 34 40 -108 241 -168 305 -91 32 38 68 38 100 0 64 -77 300 -9 300 86 0 13
14 24 30 24 17 0 30 -13 30 -30 0 -89 177 -145 281 -89 50 26 108 140 146 287
67 255 228 258 209 3 -6 -78 -9 -81 -86 -91 -123 -15 -120 -107 4 -116 163
-12 167 -152 6 -234 -223 -113 -227 -410 -5 -410 171 0 285 153 285 379 0 104
9 139 49 191 75 99 155 350 111 350 -11 0 -20 -18 -20 -39 0 -99 -136 -360
-166 -319 -69 95 -75 118 -44 177 84 163 17 302 -152 316 -139 11 -171 -14
-210 -164 -42 -162 -117 -304 -167 -317 -58 -15 -68 13 -76 216 -10 261 -14
274 -88 266 -69 -7 -126 -121 -107 -216 10 -56 -62 -214 -113 -246 -70 -45
-97 -3 -98 150 -2 230 -21 305 -78 313 -77 11 -101 -44 -101 -226 0 -181 -30
-251 -109 -251 -59 0 -70 42 -71 253 0 196 -10 227 -71 227 -58 0 -85 -47
-102 -174 -16 -120 -70 -229 -139 -284 -82 -64 -88 -55 -88 138 0 178 0 179
-53 193 -84 21 -127 -48 -127 -203 0 -172 -108 -241 -174 -110 -103 205 21
456 200 403 174 -51 168 -51 115 -12 -169 126 -459 23 -518 -183 -47 -168
-169 -258 -149 -111 18 132 -87 263 -212 263 -111 0 -142 -189 -50 -299 57
-67 52 -121 -11 -121 -113 0 -147 359 -41 444 61 49 164 38 233 -27 26 -24 47
-34 47 -22 0 64 -109 109 -244 101 -184 -10 -232 -48 -297 -238 -69 -202 -92
-238 -148 -238 -60 0 -71 31 -71 209 0 225 -14 271 -81 271 -31 0 -63 -10 -70
-22z m771 -251 c0 -125 -22 -146 -78 -74 -51 63 -54 141 -9 205 48 68 87 9 87
-131z m2460 -97 c0 -32 -70 -42 -88 -13 -15 24 8 43 51 43 21 0 37 -13 37 -30z
m-1530 -450 c0 -84 -10 -148 -25 -163 -20 -20 -25 13 -25 163 0 150 5 183 25
163 15 -15 25 -79 25 -163z m1630 64 c-1 -149 -63 -264 -142 -264 -180 0 -147
253 46 346 84 41 96 30 96 -82z"/>
</g>
</svg>
