<?xml version="1.0" standalone="no"?>
<!DOCTYPE svg PUBLIC "-//W3C//DTD SVG 20010904//EN"
 "http://www.w3.org/TR/2001/REC-SVG-20010904/DTD/svg10.dtd">
<svg version="1.0" xmlns="http://www.w3.org/2000/svg"
 width="300.000000pt" height="105.000000pt" viewBox="0 0 300.000000 105.000000"
 preserveAspectRatio="xMidYMid meet">
<metadata>
Created by potrace 1.10, written by Peter Selinger 2001-2011
</metadata>
<g transform="translate(0.000000,105.000000) scale(0.100000,-0.100000)"
fill="#000000" stroke="none">
<path d="M293 898 c-2 -5 -15 -8 -29 -8 -32 0 -90 -38 -137 -89 -34 -38 -42
-56 -38 -88 1 -6 -3 -14 -9 -18 -12 -7 -14 -98 -2 -109 4 -4 8 -12 8 -17 1 -5
2 -13 3 -17 0 -5 15 -25 32 -45 40 -47 97 -83 110 -70 6 6 -8 20 -38 39 -110
69 -125 218 -32 319 55 59 113 85 192 85 116 0 159 -33 161 -126 l1 -49 -40
-3 c-22 -2 -45 -8 -52 -14 -19 -16 -16 -46 7 -53 23 -7 88 4 96 17 10 16 44
-23 55 -65 19 -71 -14 -179 -66 -213 -41 -27 -106 -30 -135 -6 -25 20 -25 21
-27 216 -1 108 -5 201 -8 206 -3 6 -4 14 -1 19 3 4 -6 18 -19 31 -21 20 -28
22 -50 12 l-25 -12 0 -189 c0 -202 6 -236 52 -277 38 -36 64 -44 131 -44 84 0
148 23 195 70 86 86 80 206 -13 261 -37 22 -41 29 -26 45 5 5 12 29 14 54 5
43 2 47 -40 88 -24 23 -48 40 -53 37 -5 -3 -11 -1 -15 4 -3 6 -12 8 -20 4 -8
-3 -15 -1 -15 4 0 11 -160 11 -167 1z m272 -78 c13 -22 15 -57 4 -97 -9 -33
-16 -43 -32 -43 -16 0 -18 3 -9 12 15 15 16 138 2 138 -5 0 -10 5 -10 10 0 12
35 -4 45 -20z m-248 -15 c2 -11 5 -106 6 -210 2 -105 6 -196 10 -203 5 -7 3
-12 -3 -12 -5 0 -19 14 -30 32 -17 28 -19 52 -20 226 0 175 1 193 16 190 10
-2 19 -12 21 -23z m173 -134 c0 -11 -39 -25 -47 -18 -3 3 -2 10 2 16 8 13 45
15 45 2z m158 -79 c28 -73 -4 -168 -69 -203 -16 -8 -15 -3 7 38 21 41 25 58
21 113 -2 36 -8 76 -12 89 -8 23 -8 23 18 7 14 -9 30 -29 35 -44z"/>
<path d="M762 838 c-21 -21 -14 -66 12 -83 22 -15 27 -15 55 0 27 13 30 20 25
43 -4 15 -11 33 -17 40 -12 15 -59 16 -75 0z m54 -56 c-17 -17 -36 -8 -36 18
0 25 22 32 38 12 10 -13 10 -19 -2 -30z"/>
<path d="M2098 838 c-31 -24 -27 -71 7 -86 53 -24 100 28 69 75 -16 25 -51 30
-76 11z m56 -51 c-7 -20 -25 -22 -42 -5 -9 9 -8 16 5 30 14 16 19 16 30 5 8
-7 11 -21 7 -30z"/>
<path d="M749 648 c-18 -33 -23 -140 -10 -181 7 -20 24 -46 38 -57 47 -37 122
-20 144 31 14 35 26 37 41 4 25 -56 141 -74 219 -34 21 10 45 19 54 19 9 0 27
11 40 26 l23 25 18 -30 c26 -45 71 -65 129 -59 l48 6 -7 -83 c-4 -54 -2 -86 4
-90 6 -4 8 -15 5 -24 -3 -10 3 -29 15 -43 25 -33 67 -41 90 -18 22 22 33 112
21 164 -6 22 -8 43 -5 47 2 4 -4 13 -13 19 -17 10 -17 11 2 23 11 7 35 27 54
45 18 18 34 31 35 30 1 -2 8 -15 15 -29 24 -49 99 -65 142 -30 22 18 24 18 53
0 48 -29 93 -25 127 12 16 17 29 35 29 40 0 5 5 9 11 9 5 0 7 -5 4 -10 -4 -6
7 -24 24 -40 72 -72 179 -1 196 130 13 99 89 135 96 45 5 -73 2 -81 -36 -81
-40 0 -48 -6 -50 -37 -3 -29 11 -36 51 -30 29 5 35 2 44 -21 18 -47 12 -62
-29 -81 -22 -9 -52 -30 -66 -46 -32 -32 -49 -104 -31 -126 42 -52 49 -54 132
-38 60 11 114 128 99 213 -5 26 0 39 24 70 16 20 33 49 36 65 4 15 11 30 16
33 5 3 7 10 4 15 -4 5 -3 15 1 21 11 18 12 48 2 54 -14 9 -19 0 -24 -41 -5
-43 -40 -129 -58 -144 -9 -8 -19 -2 -34 19 l-22 29 20 33 c46 75 6 155 -82
165 -42 5 -50 2 -76 -23 -18 -19 -32 -48 -40 -84 -27 -118 -92 -182 -106 -105
-4 20 -6 70 -5 111 2 77 -8 104 -41 104 -31 0 -53 -37 -56 -92 -1 -29 -3 -53
-4 -53 -1 0 -3 -8 -5 -17 -2 -10 -13 -34 -25 -53 -16 -26 -28 -35 -44 -33 -19
3 -21 11 -27 110 -6 111 -16 138 -51 138 -29 0 -48 -57 -48 -143 0 -61 -4 -77
-20 -92 -10 -9 -26 -15 -35 -12 -12 5 -15 26 -15 110 0 88 -3 106 -18 120 -25
22 -37 21 -62 -5 -13 -15 -20 -35 -20 -64 0 -72 -34 -134 -89 -163 l-22 -12 3
90 3 91 -32 6 c-41 8 -67 -2 -59 -21 3 -8 1 -17 -4 -20 -5 -3 -6 -29 -3 -58 4
-45 2 -55 -16 -72 -17 -15 -26 -17 -39 -9 -60 38 -53 188 10 223 24 14 31 13
83 -8 57 -24 78 -23 54 2 -37 36 -126 47 -187 22 -54 -23 -80 -52 -96 -109 -9
-29 -27 -63 -41 -76 -29 -27 -42 -22 -25 10 26 50 -25 126 -94 137 -51 8 -73
-13 -71 -72 0 -34 8 -54 28 -80 29 -36 28 -55 0 -55 -36 0 -49 34 -47 121 2
72 6 86 24 101 12 10 32 18 44 18 25 0 86 -35 86 -50 0 -6 5 -8 10 -5 16 10
-6 43 -40 60 -38 19 -99 19 -149 -1 -29 -12 -47 -28 -65 -60 -14 -25 -23 -51
-19 -59 3 -8 1 -15 -4 -15 -5 0 -9 -9 -10 -20 -2 -30 -42 -80 -63 -80 -24 0
-30 27 -30 136 0 56 -4 94 -12 102 -19 19 -56 14 -69 -10z m52 -10 c1 -2 4
-51 8 -111 5 -84 3 -107 -7 -107 -22 0 -43 68 -41 133 2 73 6 87 25 87 8 0 15
-1 15 -2z m958 -93 c1 -52 4 -102 7 -110 11 -27 -13 -16 -40 20 -22 29 -26 41
-21 72 13 76 26 113 39 113 11 0 14 -23 15 -95z m175 -24 c2 -55 2 -101 -1
-101 -2 0 -13 5 -24 10 -17 9 -19 22 -19 98 0 85 12 124 33 103 4 -4 10 -54
11 -110z m199 106 c3 -8 5 -50 6 -94 0 -45 4 -88 7 -97 10 -25 -10 -19 -40 13
-27 28 -28 33 -21 87 11 89 33 130 48 91z m327 -63 c0 -18 -8 -46 -17 -62 -17
-29 -16 -31 9 -69 23 -35 26 -48 24 -114 -3 -79 -14 -117 -40 -138 -19 -16
-21 -4 -6 35 21 54 10 190 -18 236 -20 32 -20 36 -6 57 12 16 15 38 12 77 l-5
54 24 -22 c15 -14 23 -33 23 -54z m-1434 43 c-3 -13 -6 -58 -7 -99 -2 -84 -9
-90 -48 -37 -23 31 -22 45 5 106 12 27 37 51 53 53 2 0 1 -10 -3 -23z m354 -2
c-8 -10 -11 -41 -8 -95 3 -79 -4 -94 -26 -54 -6 10 -15 22 -20 26 -13 9 -16
37 -5 44 5 3 9 15 9 28 0 23 33 66 52 66 7 0 6 -5 -2 -15z m-250 -7 c7 -38 10
-128 4 -128 -33 0 -56 68 -38 114 5 13 33 24 34 14z m62 -40 c24 -40 22 -85
-6 -113 -14 -14 -29 -25 -34 -25 -12 0 -12 32 0 47 5 6 9 34 10 62 0 56 8 63
30 29z m365 -49 c3 -93 7 -120 28 -159 22 -41 27 -162 7 -182 -9 -9 -12 10
-12 88 -1 74 -3 95 -11 81 -11 -19 -14 -151 -4 -167 9 -15 -12 -20 -24 -6 -23
27 -31 82 -31 206 0 69 0 135 0 148 0 31 18 64 33 59 7 -2 13 -29 14 -68z
m811 -31 c-3 -7 -11 -13 -18 -13 -7 0 -15 6 -17 13 -3 7 4 12 17 12 13 0 20
-5 18 -12z m44 -201 c-2 -28 -10 -69 -19 -89 -13 -31 -21 -38 -44 -38 -53 0
-76 88 -33 130 23 22 87 59 93 53 3 -2 4 -27 3 -56z"/>
</g>
</svg>
